<svg xmlns="http://www.w3.org/2000/svg" xmlns:xlink="http://www.w3.org/1999/xlink" width="500" zoomAndPan="magnify" viewBox="0 0 375 374.999991" height="500" preserveAspectRatio="xMidYMid meet" version="1.0"><defs><g/><clipPath id="6e6fac54be"><path d="M 218.574219 233.796875 L 238.175781 233.796875 L 238.175781 253.398438 L 218.574219 253.398438 Z M 218.574219 233.796875 " clip-rule="nonzero"/></clipPath><clipPath id="4f5fb5de98"><path d="M 228.375 233.796875 C 222.960938 233.796875 218.574219 238.1875 218.574219 243.597656 C 218.574219 249.011719 222.960938 253.398438 228.375 253.398438 C 233.789062 253.398438 238.175781 249.011719 238.175781 243.597656 C 238.175781 238.1875 233.789062 233.796875 228.375 233.796875 Z M 228.375 233.796875 " clip-rule="nonzero"/></clipPath></defs><rect x="-37.5" width="450" fill="#ffffff" y="-37.499999" height="449.999989" fill-opacity="1"/><rect x="-37.5" width="450" fill="#f5f5f4" y="-37.499999" height="449.999989" fill-opacity="1"/><g clip-path="url(#6e6fac54be)"><g clip-path="url(#4f5fb5de98)"><path fill="#000000" d="M 218.574219 233.796875 L 238.175781 233.796875 L 238.175781 253.398438 L 218.574219 253.398438 Z M 218.574219 233.796875 " fill-opacity="1" fill-rule="nonzero"/></g></g><g fill="#000000" fill-opacity="1"><g transform="translate(158.137826, 233.642314)"><g><path d="M 16.53125 0 L 16.53125 -102.46875 L 1.46875 -102.46875 L 1.46875 -126.84375 L 57 -126.84375 L 57 -102.46875 L 41.9375 -102.46875 L 41.9375 0 Z M 16.53125 0 "/></g></g></g></svg>